<svg xmlns="http://www.w3.org/2000/svg" xmlns:xlink="http://www.w3.org/1999/xlink" width="1280" zoomAndPan="magnify" viewBox="0 0 960 540.000001" height="720" preserveAspectRatio="xMidYMid meet" version="1.0"><defs><clipPath id="3681d89838"><path d="M 77.328125 0 L 883.03125 0 L 883.03125 539 L 77.328125 539 Z M 77.328125 0 " clip-rule="nonzero"/></clipPath></defs><g clip-path="url(#3681d89838)"><path fill="#ef5350" d="M 140.8125 270.144531 C 151.699219 275.75 161.234375 283.542969 167.808594 294.417969 C 179.292969 313.390625 180.992188 343.40625 180.992188 365.023438 L 180.992188 431.753906 C 180.992188 444.820312 181.878906 472.515625 191.304688 482.859375 C 200.132812 492.53125 220.171875 493.859375 232.257812 493.859375 C 234.09375 493.859375 236 493.722656 237.84375 493.597656 C 240.113281 493.441406 242.4375 493.296875 244.722656 493.296875 L 252.945312 493.296875 L 252.945312 539.085938 L 231.6875 539.085938 C 206.269531 539.085938 170.859375 536.054688 152.109375 516.554688 C 132.796875 496.457031 130.550781 455.207031 130.550781 429.023438 L 130.550781 361.4375 C 130.550781 344.777344 128.699219 319.976562 116.898438 306.910156 C 108.867188 298.011719 96.042969 294.460938 84.542969 293.042969 L 77.328125 292.15625 L 77.328125 247.511719 L 84.542969 246.625 C 96.015625 245.207031 108.882812 241.671875 116.890625 232.761719 C 128.699219 219.636719 130.550781 194.742188 130.550781 178.03125 L 130.550781 110.828125 C 130.550781 84.414062 132.855469 43.414062 152.167969 23.050781 C 171.027344 3.167969 205.929688 0.0078125 231.6875 0.0078125 L 252.945312 0.0078125 L 252.945312 45.796875 L 234.523438 45.796875 C 222.089844 45.796875 200.714844 47.078125 191.542969 56.949219 C 181.914062 67.328125 180.992188 94.90625 180.992188 108.089844 L 180.992188 175.207031 C 180.992188 196.808594 179.285156 226.761719 167.808594 245.71875 C 161.234375 256.589844 151.691406 264.441406 140.8125 270.144531 Z M 819.546875 270.144531 C 808.671875 264.441406 799.132812 256.589844 792.550781 245.71875 C 781.078125 226.761719 779.371094 196.808594 779.371094 175.207031 L 779.371094 108.089844 C 779.371094 94.90625 778.449219 67.328125 768.816406 56.949219 C 759.648438 47.078125 738.269531 45.796875 725.839844 45.796875 L 707.414062 45.796875 L 707.414062 0.0078125 L 728.675781 0.0078125 C 754.433594 0.0078125 789.332031 3.167969 808.191406 23.050781 C 827.503906 43.414062 829.800781 84.414062 829.800781 110.828125 L 829.800781 178.03125 C 829.800781 194.742188 831.664062 219.636719 843.46875 232.761719 C 851.476562 241.671875 864.34375 245.207031 875.820312 246.625 L 883.03125 247.511719 L 883.03125 292.15625 L 875.820312 293.042969 C 864.320312 294.460938 851.496094 298.011719 843.453125 306.910156 C 831.652344 319.976562 829.800781 344.777344 829.800781 361.4375 L 829.800781 429.023438 C 829.800781 455.207031 827.5625 496.457031 808.253906 516.554688 C 789.496094 536.054688 754.089844 539.085938 728.675781 539.085938 L 707.414062 539.085938 L 707.414062 493.296875 L 715.636719 493.296875 C 717.925781 493.296875 720.238281 493.441406 722.519531 493.597656 C 724.355469 493.722656 726.257812 493.859375 728.101562 493.859375 C 740.191406 493.859375 760.230469 492.53125 769.058594 482.859375 C 778.480469 472.515625 779.371094 444.820312 779.371094 431.753906 L 779.371094 365.023438 C 779.371094 343.40625 781.070312 313.390625 792.550781 294.417969 C 799.125 283.542969 808.664062 275.75 819.546875 270.144531 " fill-opacity="1" fill-rule="evenodd"/></g><path fill="#03a9f4" d="M 571.507812 374.625 L 571.507812 332.882812 L 735.042969 332.882812 L 735.042969 374.625 L 571.507812 374.625 " fill-opacity="1" fill-rule="evenodd"/><path fill="#ffb300" d="M 235.84375 269.273438 L 323.96875 327.011719 L 323.96875 381.894531 L 187.796875 289.789062 L 187.796875 248.277344 L 323.96875 157.308594 L 323.96875 212.042969 L 235.84375 269.273438 " fill-opacity="1" fill-rule="evenodd"/><path fill="#8bc34a" d="M 559.972656 269.273438 L 471.960938 212.042969 L 471.960938 157.308594 L 608.140625 248.277344 L 608.140625 289.789062 L 471.960938 381.894531 L 471.960938 327.011719 L 559.972656 269.273438 " fill-opacity="1" fill-rule="evenodd"/><path fill="#455a64" d="M 475.871094 101.195312 L 367.691406 450.625 L 320.066406 437.898438 L 428.246094 88.46875 L 475.871094 101.195312 " fill-opacity="1" fill-rule="evenodd"/></svg>