<svg xmlns="http://www.w3.org/2000/svg" xmlns:xlink="http://www.w3.org/1999/xlink" width="300" zoomAndPan="magnify" viewBox="0 0 224.87999 149.999998" height="200" preserveAspectRatio="xMidYMid meet" version="1.0"><defs><g/><clipPath id="6f87172657"><path d="M 109.953125 94.820312 L 120.828125 94.820312 L 120.828125 105.695312 L 109.953125 105.695312 Z M 109.953125 94.820312 " clip-rule="nonzero"/></clipPath></defs><g fill="#ffffff" fill-opacity="1"><g transform="translate(28.645162, 130.822491)"><g><path d="M 53.59375 -11.347656 C 53.75 -11.347656 53.910156 -11.347656 54.066406 -11.347656 C 59.347656 -11.902344 65.101562 -22.539062 76.054688 -51.859375 C 76.449219 -52.964844 75.898438 -54.222656 74.792969 -54.617188 C 73.691406 -55.011719 72.429688 -54.460938 72.035156 -53.355469 C 68.882812 -44.84375 65.179688 -35.152344 61.632812 -27.585938 C 56.351562 -16.472656 53.988281 -15.683594 53.671875 -15.605469 C 53.59375 -15.683594 53.4375 -15.839844 53.199219 -16.15625 C 48.707031 -23.40625 49.179688 -59.269531 52.648438 -86.617188 C 53.59375 -93.945312 51.230469 -95.917969 49.023438 -96.3125 C 44.371094 -97.019531 39.011719 -89.375 36.253906 -84.726562 C 31.605469 -76.765625 27.820312 -66.753906 25.695312 -56.429688 C 25.773438 -56.746094 25.773438 -57.0625 25.773438 -57.375 C 25.851562 -58.164062 25.851562 -59.109375 25.929688 -60.136719 C 26.796875 -72.195312 26.796875 -77.554688 23.40625 -78.421875 C 20.808594 -79.128906 18.519531 -76.527344 14.816406 -68.726562 C 9.535156 -57.691406 7.171875 -46.738281 5.515625 -39.566406 C 5.359375 -38.777344 5.203125 -37.988281 5.042969 -37.199219 C 3.863281 -43.585938 3.074219 -49.101562 2.523438 -53.910156 C 6.777344 -72.429688 7.328125 -83.386719 4.097656 -86.539062 C 3.308594 -87.324219 2.285156 -87.640625 1.339844 -87.40625 L 1.183594 -87.40625 L 1.023438 -87.324219 C -0.078125 -86.851562 -2.917969 -85.59375 -2.757812 -70.222656 C -2.757812 -66.363281 -2.523438 -61.003906 -1.734375 -54.144531 C -1.8125 -53.828125 -1.890625 -53.4375 -1.96875 -53.121094 C -2.207031 -52.332031 -1.890625 -51.542969 -1.417969 -51.070312 C -0.710938 -45.632812 0.238281 -39.25 1.65625 -32.078125 L 1.734375 -31.839844 L 1.8125 -31.605469 C 2.128906 -30.894531 3.152344 -28.765625 5.203125 -28.925781 C 7.644531 -29.238281 8.195312 -31.761719 9.695312 -38.617188 C 11.269531 -45.632812 13.636719 -56.351562 18.679688 -66.914062 C 20.175781 -70.222656 21.28125 -72.035156 21.988281 -73.0625 C 22.382812 -69.90625 21.910156 -63.761719 21.675781 -60.449219 C 21.675781 -59.425781 21.59375 -58.480469 21.515625 -57.613281 C 21.28125 -53.199219 21.199219 -49.890625 21.359375 -47.605469 C 21.4375 -45.871094 21.59375 -42.875 23.960938 -42.558594 C 26.324219 -42.324219 27.191406 -45.160156 27.820312 -46.972656 C 28.453125 -49.023438 29.160156 -51.703125 29.792969 -54.933594 C 32.394531 -68.332031 37.121094 -77.789062 39.722656 -82.203125 C 43.898438 -89.296875 47.210938 -91.898438 48.234375 -92.054688 C 48.390625 -91.738281 48.863281 -90.480469 48.390625 -87.089844 C 45.398438 -63.207031 43.664062 -23.40625 49.574219 -13.949219 C 50.914062 -11.742188 52.570312 -11.347656 53.59375 -11.347656 Z M 1.890625 -79.523438 C 1.96875 -77.710938 1.890625 -75.109375 1.417969 -71.40625 C 1.417969 -75.03125 1.65625 -77.632812 1.890625 -79.523438 Z M 1.890625 -79.523438 "/></g></g></g><g fill="#ffffff" fill-opacity="1"><g transform="translate(128.319672, 130.822491)"><g><path d="M 53.59375 -11.347656 C 53.75 -11.347656 53.910156 -11.347656 54.066406 -11.347656 C 59.347656 -11.902344 65.101562 -22.539062 76.054688 -51.859375 C 76.449219 -52.964844 75.898438 -54.222656 74.792969 -54.617188 C 73.691406 -55.011719 72.429688 -54.460938 72.035156 -53.355469 C 68.882812 -44.84375 65.179688 -35.152344 61.632812 -27.585938 C 56.351562 -16.472656 53.988281 -15.683594 53.671875 -15.605469 C 53.59375 -15.683594 53.4375 -15.839844 53.199219 -16.15625 C 48.707031 -23.40625 49.179688 -59.269531 52.648438 -86.617188 C 53.59375 -93.945312 51.230469 -95.917969 49.023438 -96.3125 C 44.371094 -97.019531 39.011719 -89.375 36.253906 -84.726562 C 31.605469 -76.765625 27.820312 -66.753906 25.695312 -56.429688 C 25.773438 -56.746094 25.773438 -57.0625 25.773438 -57.375 C 25.851562 -58.164062 25.851562 -59.109375 25.929688 -60.136719 C 26.796875 -72.195312 26.796875 -77.554688 23.40625 -78.421875 C 20.808594 -79.128906 18.519531 -76.527344 14.816406 -68.726562 C 9.535156 -57.691406 7.171875 -46.738281 5.515625 -39.566406 C 5.359375 -38.777344 5.203125 -37.988281 5.042969 -37.199219 C 3.863281 -43.585938 3.074219 -49.101562 2.523438 -53.910156 C 6.777344 -72.429688 7.328125 -83.386719 4.097656 -86.539062 C 3.308594 -87.324219 2.285156 -87.640625 1.339844 -87.40625 L 1.183594 -87.40625 L 1.023438 -87.324219 C -0.078125 -86.851562 -2.917969 -85.59375 -2.757812 -70.222656 C -2.757812 -66.363281 -2.523438 -61.003906 -1.734375 -54.144531 C -1.8125 -53.828125 -1.890625 -53.4375 -1.96875 -53.121094 C -2.207031 -52.332031 -1.890625 -51.542969 -1.417969 -51.070312 C -0.710938 -45.632812 0.238281 -39.25 1.65625 -32.078125 L 1.734375 -31.839844 L 1.8125 -31.605469 C 2.128906 -30.894531 3.152344 -28.765625 5.203125 -28.925781 C 7.644531 -29.238281 8.195312 -31.761719 9.695312 -38.617188 C 11.269531 -45.632812 13.636719 -56.351562 18.679688 -66.914062 C 20.175781 -70.222656 21.28125 -72.035156 21.988281 -73.0625 C 22.382812 -69.90625 21.910156 -63.761719 21.675781 -60.449219 C 21.675781 -59.425781 21.59375 -58.480469 21.515625 -57.613281 C 21.28125 -53.199219 21.199219 -49.890625 21.359375 -47.605469 C 21.4375 -45.871094 21.59375 -42.875 23.960938 -42.558594 C 26.324219 -42.324219 27.191406 -45.160156 27.820312 -46.972656 C 28.453125 -49.023438 29.160156 -51.703125 29.792969 -54.933594 C 32.394531 -68.332031 37.121094 -77.789062 39.722656 -82.203125 C 43.898438 -89.296875 47.210938 -91.898438 48.234375 -92.054688 C 48.390625 -91.738281 48.863281 -90.480469 48.390625 -87.089844 C 45.398438 -63.207031 43.664062 -23.40625 49.574219 -13.949219 C 50.914062 -11.742188 52.570312 -11.347656 53.59375 -11.347656 Z M 1.890625 -79.523438 C 1.96875 -77.710938 1.890625 -75.109375 1.417969 -71.40625 C 1.417969 -75.03125 1.65625 -77.632812 1.890625 -79.523438 Z M 1.890625 -79.523438 "/></g></g></g><g fill="#ffffff" fill-opacity="1"><g transform="translate(-1.030265, 126.974962)"><g><path d="M 25.835938 -113.378906 C 20.554688 -113.59375 16.921875 -112.859375 14.972656 -111.128906 C 13.070312 -109.308594 12.117188 -105.890625 12.160156 -100.871094 C 12.03125 -97.84375 11.988281 -86.808594 11.988281 -67.765625 C 11.898438 -65.820312 11.207031 -63.785156 9.867188 -61.707031 C 8.523438 -59.589844 7.011719 -58.160156 5.410156 -57.425781 C 4.761719 -57.121094 4.457031 -56.644531 4.414062 -55.953125 C 4.457031 -55.261719 4.804688 -54.785156 5.410156 -54.523438 C 6.273438 -54.136719 7.226562 -53.355469 8.265625 -52.144531 C 9.261719 -50.933594 10.125 -49.636719 10.863281 -48.207031 C 11.597656 -46.777344 11.988281 -45.566406 12.03125 -44.570312 C 12.03125 -32.195312 12.074219 -21.464844 12.117188 -12.332031 C 12.117188 -3.203125 12.160156 1.601562 12.160156 2.164062 C 12.117188 2.378906 12.160156 2.8125 12.203125 3.460938 C 12.246094 4.15625 12.464844 4.890625 12.808594 5.753906 C 13.113281 6.664062 13.675781 7.488281 14.496094 8.351562 C 16.359375 10.257812 19.128906 11.207031 22.804688 11.207031 C 23.238281 11.207031 23.714844 11.207031 24.191406 11.164062 C 24.621094 11.121094 24.96875 10.949219 25.273438 10.644531 C 25.53125 10.34375 25.660156 9.953125 25.660156 9.519531 C 25.617188 9.085938 25.445312 8.742188 25.140625 8.4375 C 24.796875 8.179688 24.449219 8.050781 24.015625 8.050781 C 20.597656 8.265625 18.175781 7.660156 16.703125 6.1875 C 16.226562 5.625 15.839844 5.0625 15.621094 4.5 C 15.449219 3.894531 15.320312 3.417969 15.277344 2.984375 C 15.277344 2.597656 15.234375 2.378906 15.277344 2.335938 C 15.277344 2.292969 15.277344 2.25 15.277344 2.207031 C 15.277344 1.6875 15.234375 -3.117188 15.234375 -12.246094 C 15.1875 -21.335938 15.144531 -32.109375 15.144531 -44.570312 C 15.058594 -46.347656 14.367188 -48.335938 13.113281 -50.542969 C 11.855469 -52.707031 10.429688 -54.523438 8.871094 -55.910156 C 10.644531 -57.382812 12.117188 -59.199219 13.285156 -61.40625 C 14.453125 -63.613281 15.058594 -65.691406 15.101562 -67.765625 C 15.101562 -86.765625 15.144531 -97.757812 15.277344 -100.742188 C 15.277344 -104.984375 15.882812 -107.710938 17.050781 -108.835938 C 18.433594 -109.917969 21.378906 -110.390625 25.835938 -110.261719 C 26.265625 -110.261719 26.613281 -110.390625 26.917969 -110.695312 C 27.21875 -110.996094 27.347656 -111.34375 27.390625 -111.777344 C 27.390625 -112.210938 27.21875 -112.597656 26.917969 -112.902344 C 26.65625 -113.203125 26.265625 -113.335938 25.835938 -113.378906 Z M 25.835938 -113.378906 "/></g></g></g><g fill="#ffffff" fill-opacity="1"><g transform="translate(195.278878, 126.974962)"><g><path d="M 26.441406 -58.375 C 24.796875 -59.113281 23.324219 -60.539062 21.984375 -62.660156 C 20.640625 -64.78125 19.90625 -66.773438 19.820312 -68.71875 C 19.820312 -87.757812 19.777344 -98.792969 19.691406 -101.824219 C 19.691406 -106.84375 18.78125 -110.261719 16.875 -112.078125 C 14.886719 -113.8125 11.292969 -114.589844 5.972656 -114.328125 C 5.539062 -114.328125 5.191406 -114.15625 4.890625 -113.855469 C 4.585938 -113.550781 4.457031 -113.203125 4.457031 -112.773438 C 4.457031 -112.296875 4.628906 -111.949219 4.933594 -111.648438 C 5.234375 -111.34375 5.582031 -111.214844 6.015625 -111.214844 C 10.472656 -111.386719 13.371094 -110.910156 14.757812 -109.785156 C 15.925781 -108.660156 16.53125 -105.976562 16.574219 -101.738281 C 16.660156 -98.707031 16.703125 -87.714844 16.703125 -68.71875 C 16.746094 -66.683594 17.351562 -64.566406 18.519531 -62.359375 C 19.691406 -60.152344 21.160156 -58.332031 22.933594 -56.90625 C 21.421875 -55.476562 19.992188 -53.703125 18.695312 -51.496094 C 17.4375 -49.332031 16.746094 -47.339844 16.703125 -45.523438 C 16.660156 -33.0625 16.617188 -22.285156 16.617188 -13.199219 C 16.574219 -4.066406 16.574219 0.734375 16.574219 1.253906 C 16.574219 1.296875 16.574219 1.339844 16.574219 1.386719 C 16.574219 1.386719 16.574219 1.601562 16.53125 2.035156 C 16.53125 2.421875 16.402344 2.941406 16.183594 3.503906 C 15.96875 4.109375 15.621094 4.671875 15.101562 5.234375 C 13.632812 6.664062 11.207031 7.3125 7.832031 7.097656 C 7.398438 7.097656 7.011719 7.226562 6.707031 7.488281 C 6.40625 7.746094 6.230469 8.136719 6.1875 8.566406 C 6.144531 9 6.273438 9.390625 6.578125 9.695312 C 6.835938 9.996094 7.183594 10.167969 7.617188 10.210938 C 8.136719 10.257812 8.566406 10.257812 9.042969 10.257812 C 12.679688 10.257812 15.449219 9.304688 17.351562 7.355469 C 18.132812 6.535156 18.695312 5.667969 19.039062 4.804688 C 19.386719 3.9375 19.558594 3.160156 19.601562 2.511719 C 19.691406 1.859375 19.691406 1.429688 19.691406 1.210938 C 19.691406 1.210938 19.691406 1.167969 19.691406 1.039062 C 19.691406 -0.347656 19.691406 -5.539062 19.734375 -14.410156 C 19.734375 -23.324219 19.777344 -33.710938 19.820312 -45.523438 C 19.820312 -46.519531 20.207031 -47.730469 20.945312 -49.160156 C 21.679688 -50.585938 22.546875 -51.886719 23.585938 -53.097656 C 24.578125 -54.308594 25.53125 -55.132812 26.398438 -55.476562 C 27.046875 -55.78125 27.390625 -56.257812 27.4375 -56.949219 C 27.390625 -57.640625 27.046875 -58.117188 26.441406 -58.375 Z M 26.441406 -58.375 "/></g></g></g><g clip-path="url(#6f87172657)"><path fill="#ffffff" d="M 115.390625 94.820312 C 112.386719 94.820312 109.953125 97.253906 109.953125 100.257812 C 109.953125 103.261719 112.386719 105.695312 115.390625 105.695312 C 118.394531 105.695312 120.828125 103.261719 120.828125 100.257812 C 120.828125 97.253906 118.394531 94.820312 115.390625 94.820312 " fill-opacity="1" fill-rule="nonzero"/></g></svg>