<svg xmlns="http://www.w3.org/2000/svg" xmlns:xlink="http://www.w3.org/1999/xlink" width="500" zoomAndPan="magnify" viewBox="0 0 375 374.999991" height="500" preserveAspectRatio="xMidYMid meet" version="1.0"><defs><g/><clipPath id="bf513102df"><path d="M 183.835938 198.699219 L 196.585938 198.699219 L 196.585938 211.449219 L 183.835938 211.449219 Z M 183.835938 198.699219 " clip-rule="nonzero"/></clipPath></defs><g fill="#ffffff" fill-opacity="1"><g transform="translate(88.508676, 240.577034)"><g><path d="M 62.828125 -13.304688 C 63.011719 -13.304688 63.199219 -13.304688 63.382812 -13.304688 C 69.574219 -13.953125 76.316406 -26.425781 89.160156 -60.796875 C 89.625 -62.089844 88.976562 -63.566406 87.683594 -64.03125 C 86.390625 -64.492188 84.910156 -63.84375 84.449219 -62.550781 C 80.753906 -52.574219 76.410156 -41.207031 72.253906 -32.339844 C 66.0625 -19.3125 63.289062 -18.386719 62.921875 -18.292969 C 62.828125 -18.386719 62.644531 -18.570312 62.367188 -18.941406 C 57.101562 -27.441406 57.65625 -69.480469 61.71875 -101.542969 C 62.828125 -110.136719 60.058594 -112.445312 57.46875 -112.90625 C 52.019531 -113.738281 45.734375 -104.777344 42.5 -99.324219 C 37.050781 -89.992188 32.617188 -78.257812 30.121094 -66.15625 C 30.214844 -66.523438 30.214844 -66.894531 30.214844 -67.261719 C 30.304688 -68.1875 30.304688 -69.296875 30.398438 -70.496094 C 31.414062 -84.632812 31.414062 -90.917969 27.441406 -91.933594 C 24.390625 -92.765625 21.710938 -89.714844 17.371094 -80.570312 C 11.179688 -67.632812 8.40625 -54.789062 6.46875 -46.382812 C 6.28125 -45.457031 6.097656 -44.535156 5.914062 -43.609375 C 4.527344 -51.09375 3.601562 -57.5625 2.957031 -63.199219 C 7.945312 -84.910156 8.59375 -97.753906 4.804688 -101.449219 C 3.878906 -102.375 2.679688 -102.742188 1.570312 -102.464844 L 1.386719 -102.464844 L 1.199219 -102.375 C -0.09375 -101.820312 -3.417969 -100.339844 -3.234375 -82.324219 C -3.234375 -77.796875 -2.957031 -71.515625 -2.03125 -63.476562 C -2.125 -63.105469 -2.21875 -62.644531 -2.308594 -62.273438 C -2.585938 -61.351562 -2.21875 -60.425781 -1.664062 -59.871094 C -0.832031 -53.496094 0.277344 -46.011719 1.941406 -37.605469 L 2.03125 -37.328125 L 2.125 -37.050781 C 2.496094 -36.21875 3.695312 -33.722656 6.097656 -33.910156 C 8.960938 -34.277344 9.609375 -37.234375 11.363281 -45.273438 C 13.210938 -53.496094 15.984375 -66.0625 21.898438 -78.445312 C 23.652344 -82.324219 24.945312 -84.449219 25.777344 -85.648438 C 26.238281 -81.953125 25.6875 -74.746094 25.410156 -70.867188 C 25.410156 -69.664062 25.316406 -68.558594 25.222656 -67.539062 C 24.945312 -62.367188 24.855469 -58.484375 25.039062 -55.804688 C 25.132812 -53.773438 25.316406 -50.261719 28.089844 -49.894531 C 30.859375 -49.617188 31.875 -52.941406 32.617188 -55.066406 C 33.355469 -57.46875 34.1875 -60.609375 34.925781 -64.398438 C 37.972656 -80.105469 43.519531 -91.195312 46.566406 -96.367188 C 51.464844 -104.683594 55.34375 -107.734375 56.546875 -107.917969 C 56.730469 -107.546875 57.285156 -106.070312 56.730469 -102.097656 C 53.21875 -74.101562 51.1875 -27.441406 58.117188 -16.355469 C 59.6875 -13.765625 61.628906 -13.304688 62.828125 -13.304688 Z M 2.21875 -93.226562 C 2.308594 -91.101562 2.21875 -88.050781 1.664062 -83.710938 C 1.664062 -87.960938 1.941406 -91.007812 2.21875 -93.226562 Z M 2.21875 -93.226562 "/></g></g></g><g fill="#ffffff" fill-opacity="1"><g transform="translate(205.358453, 240.577034)"><g><path d="M 62.828125 -13.304688 C 63.011719 -13.304688 63.199219 -13.304688 63.382812 -13.304688 C 69.574219 -13.953125 76.316406 -26.425781 89.160156 -60.796875 C 89.625 -62.089844 88.976562 -63.566406 87.683594 -64.03125 C 86.390625 -64.492188 84.910156 -63.84375 84.449219 -62.550781 C 80.753906 -52.574219 76.410156 -41.207031 72.253906 -32.339844 C 66.0625 -19.3125 63.289062 -18.386719 62.921875 -18.292969 C 62.828125 -18.386719 62.644531 -18.570312 62.367188 -18.941406 C 57.101562 -27.441406 57.65625 -69.480469 61.71875 -101.542969 C 62.828125 -110.136719 60.058594 -112.445312 57.46875 -112.90625 C 52.019531 -113.738281 45.734375 -104.777344 42.5 -99.324219 C 37.050781 -89.992188 32.617188 -78.257812 30.121094 -66.15625 C 30.214844 -66.523438 30.214844 -66.894531 30.214844 -67.261719 C 30.304688 -68.1875 30.304688 -69.296875 30.398438 -70.496094 C 31.414062 -84.632812 31.414062 -90.917969 27.441406 -91.933594 C 24.390625 -92.765625 21.710938 -89.714844 17.371094 -80.570312 C 11.179688 -67.632812 8.40625 -54.789062 6.46875 -46.382812 C 6.28125 -45.457031 6.097656 -44.535156 5.914062 -43.609375 C 4.527344 -51.09375 3.601562 -57.5625 2.957031 -63.199219 C 7.945312 -84.910156 8.59375 -97.753906 4.804688 -101.449219 C 3.878906 -102.375 2.679688 -102.742188 1.570312 -102.464844 L 1.386719 -102.464844 L 1.199219 -102.375 C -0.09375 -101.820312 -3.417969 -100.339844 -3.234375 -82.324219 C -3.234375 -77.796875 -2.957031 -71.515625 -2.03125 -63.476562 C -2.125 -63.105469 -2.21875 -62.644531 -2.308594 -62.273438 C -2.585938 -61.351562 -2.21875 -60.425781 -1.664062 -59.871094 C -0.832031 -53.496094 0.277344 -46.011719 1.941406 -37.605469 L 2.03125 -37.328125 L 2.125 -37.050781 C 2.496094 -36.21875 3.695312 -33.722656 6.097656 -33.910156 C 8.960938 -34.277344 9.609375 -37.234375 11.363281 -45.273438 C 13.210938 -53.496094 15.984375 -66.0625 21.898438 -78.445312 C 23.652344 -82.324219 24.945312 -84.449219 25.777344 -85.648438 C 26.238281 -81.953125 25.6875 -74.746094 25.410156 -70.867188 C 25.410156 -69.664062 25.316406 -68.558594 25.222656 -67.539062 C 24.945312 -62.367188 24.855469 -58.484375 25.039062 -55.804688 C 25.132812 -53.773438 25.316406 -50.261719 28.089844 -49.894531 C 30.859375 -49.617188 31.875 -52.941406 32.617188 -55.066406 C 33.355469 -57.46875 34.1875 -60.609375 34.925781 -64.398438 C 37.972656 -80.105469 43.519531 -91.195312 46.566406 -96.367188 C 51.464844 -104.683594 55.34375 -107.734375 56.546875 -107.917969 C 56.730469 -107.546875 57.285156 -106.070312 56.730469 -102.097656 C 53.21875 -74.101562 51.1875 -27.441406 58.117188 -16.355469 C 59.6875 -13.765625 61.628906 -13.304688 62.828125 -13.304688 Z M 2.21875 -93.226562 C 2.308594 -91.101562 2.21875 -88.050781 1.664062 -83.710938 C 1.664062 -87.960938 1.941406 -91.007812 2.21875 -93.226562 Z M 2.21875 -93.226562 "/></g></g></g><g fill="#ffffff" fill-opacity="1"><g transform="translate(53.726325, 236.624984)"><g><path d="M 30.285156 -132.914062 C 24.097656 -133.167969 19.835938 -132.308594 17.554688 -130.277344 C 15.320312 -128.148438 14.203125 -124.140625 14.253906 -118.253906 C 14.101562 -114.703125 14.050781 -101.765625 14.050781 -79.445312 C 13.949219 -77.164062 13.140625 -74.777344 11.566406 -72.34375 C 9.992188 -69.855469 8.21875 -68.183594 6.339844 -67.320312 C 5.582031 -66.964844 5.226562 -66.40625 5.175781 -65.59375 C 5.226562 -64.785156 5.632812 -64.226562 6.339844 -63.921875 C 7.355469 -63.464844 8.472656 -62.550781 9.691406 -61.132812 C 10.855469 -59.710938 11.871094 -58.1875 12.734375 -56.515625 C 13.597656 -54.839844 14.050781 -53.421875 14.101562 -52.253906 C 14.101562 -37.742188 14.152344 -25.164062 14.203125 -14.457031 C 14.203125 -3.753906 14.253906 1.878906 14.253906 2.535156 C 14.203125 2.789062 14.253906 3.296875 14.304688 4.058594 C 14.355469 4.871094 14.609375 5.734375 15.015625 6.746094 C 15.371094 7.8125 16.03125 8.777344 16.996094 9.792969 C 19.175781 12.023438 22.421875 13.140625 26.734375 13.140625 C 27.242188 13.140625 27.800781 13.140625 28.359375 13.089844 C 28.867188 13.039062 29.273438 12.835938 29.628906 12.480469 C 29.929688 12.125 30.082031 11.667969 30.082031 11.160156 C 30.03125 10.652344 29.828125 10.246094 29.476562 9.894531 C 29.070312 9.589844 28.664062 9.4375 28.15625 9.4375 C 24.148438 9.691406 21.308594 8.980469 19.582031 7.253906 C 19.023438 6.59375 18.566406 5.9375 18.3125 5.277344 C 18.109375 4.566406 17.957031 4.007812 17.90625 3.5 C 17.90625 3.042969 17.855469 2.789062 17.90625 2.738281 C 17.90625 2.6875 17.90625 2.636719 17.90625 2.585938 C 17.90625 1.980469 17.855469 -3.652344 17.855469 -14.355469 C 17.808594 -25.011719 17.757812 -37.640625 17.757812 -52.253906 C 17.65625 -54.332031 16.84375 -56.667969 15.371094 -59.253906 C 13.898438 -61.789062 12.226562 -63.921875 10.398438 -65.542969 C 12.480469 -67.269531 14.203125 -69.398438 15.574219 -71.988281 C 16.945312 -74.574219 17.65625 -77.011719 17.707031 -79.445312 C 17.707031 -101.714844 17.757812 -114.601562 17.90625 -118.101562 C 17.90625 -123.074219 18.617188 -126.269531 19.988281 -127.589844 C 21.613281 -128.855469 25.0625 -129.414062 30.285156 -129.261719 C 30.792969 -129.261719 31.199219 -129.414062 31.554688 -129.769531 C 31.910156 -130.125 32.0625 -130.53125 32.113281 -131.039062 C 32.113281 -131.546875 31.910156 -132.003906 31.554688 -132.359375 C 31.25 -132.710938 30.792969 -132.863281 30.285156 -132.914062 Z M 30.285156 -132.914062 "/></g></g></g><g fill="#ffffff" fill-opacity="1"><g transform="translate(283.865742, 236.624984)"><g><path d="M 30.996094 -68.4375 C 29.070312 -69.296875 27.34375 -70.972656 25.769531 -73.457031 C 24.199219 -75.945312 23.335938 -78.277344 23.234375 -80.5625 C 23.234375 -102.882812 23.183594 -115.820312 23.082031 -119.371094 C 23.082031 -125.253906 22.015625 -129.261719 19.785156 -131.394531 C 17.453125 -133.421875 13.242188 -134.335938 7 -134.03125 C 6.492188 -134.03125 6.085938 -133.828125 5.734375 -133.472656 C 5.378906 -133.117188 5.226562 -132.710938 5.226562 -132.207031 C 5.226562 -131.648438 5.429688 -131.242188 5.785156 -130.886719 C 6.136719 -130.53125 6.542969 -130.378906 7.050781 -130.378906 C 12.277344 -130.582031 15.675781 -130.023438 17.300781 -128.703125 C 18.667969 -127.386719 19.378906 -124.242188 19.429688 -119.269531 C 19.53125 -115.71875 19.582031 -102.832031 19.582031 -80.5625 C 19.632812 -78.175781 20.34375 -75.691406 21.714844 -73.105469 C 23.082031 -70.515625 24.808594 -68.386719 26.886719 -66.710938 C 25.113281 -65.039062 23.4375 -62.957031 21.914062 -60.371094 C 20.445312 -57.832031 19.632812 -55.5 19.582031 -53.371094 C 19.53125 -38.757812 19.480469 -26.125 19.480469 -15.472656 C 19.429688 -4.769531 19.429688 0.863281 19.429688 1.472656 C 19.429688 1.523438 19.429688 1.574219 19.429688 1.625 C 19.429688 1.625 19.429688 1.878906 19.378906 2.382812 C 19.378906 2.839844 19.226562 3.449219 18.972656 4.109375 C 18.71875 4.820312 18.3125 5.480469 17.707031 6.136719 C 15.980469 7.8125 13.140625 8.574219 9.183594 8.320312 C 8.675781 8.320312 8.21875 8.472656 7.863281 8.777344 C 7.507812 9.082031 7.304688 9.539062 7.253906 10.042969 C 7.203125 10.550781 7.355469 11.007812 7.710938 11.363281 C 8.015625 11.71875 8.421875 11.921875 8.929688 11.972656 C 9.539062 12.023438 10.042969 12.023438 10.601562 12.023438 C 14.863281 12.023438 18.109375 10.90625 20.34375 8.625 C 21.257812 7.660156 21.914062 6.644531 22.320312 5.632812 C 22.726562 4.617188 22.929688 3.703125 22.980469 2.941406 C 23.082031 2.179688 23.082031 1.675781 23.082031 1.421875 C 23.082031 1.421875 23.082031 1.371094 23.082031 1.21875 C 23.082031 -0.40625 23.082031 -6.492188 23.132812 -16.894531 C 23.132812 -27.34375 23.183594 -39.519531 23.234375 -53.371094 C 23.234375 -54.535156 23.691406 -55.957031 24.554688 -57.628906 C 25.417969 -59.304688 26.429688 -60.828125 27.648438 -62.246094 C 28.816406 -63.667969 29.929688 -64.632812 30.945312 -65.039062 C 31.707031 -65.390625 32.113281 -65.949219 32.164062 -66.761719 C 32.113281 -67.574219 31.707031 -68.132812 30.996094 -68.4375 Z M 30.996094 -68.4375 "/></g></g></g><g clip-path="url(#bf513102df)"><path fill="#ffffff" d="M 190.210938 198.699219 C 186.6875 198.699219 183.835938 201.550781 183.835938 205.074219 C 183.835938 208.59375 186.6875 211.449219 190.210938 211.449219 C 193.730469 211.449219 196.585938 208.59375 196.585938 205.074219 C 196.585938 201.550781 193.730469 198.699219 190.210938 198.699219 " fill-opacity="1" fill-rule="nonzero"/></g></svg>